<svg width="76" height="76" viewBox="0 0 76 76" fill="none" xmlns="http://www.w3.org/2000/svg">
<rect x="75" y="75" width="74" height="74" rx="37" transform="rotate(-180 75 75)" fill="#FF4545"/>
<path d="M23.9393 36.9393C23.3536 37.5251 23.3536 38.4749 23.9393 39.0607L33.4853 48.6066C34.0711 49.1924 35.0208 49.1924 35.6066 48.6066C36.1924 48.0208 36.1924 47.0711 35.6066 46.4853L27.1213 38L35.6066 29.5147C36.1924 28.9289 36.1924 27.9792 35.6066 27.3934C35.0208 26.8076 34.0711 26.8076 33.4853 27.3934L23.9393 36.9393ZM55 36.5L25 36.5V39.5L55 39.5V36.5Z" fill="white"/>
<rect x="75" y="75" width="74" height="74" rx="37" transform="rotate(-180 75 75)" stroke="white" stroke-width="2" stroke-dasharray="5 5"/>
</svg>
