<svg width="48" height="39" viewBox="0 0 48 39" fill="none" xmlns="http://www.w3.org/2000/svg">
<path d="M46.9964 6.03429C46.725 4.86723 46.1902 3.8021 45.4454 2.9455C44.7007 2.08889 43.7721 1.47086 42.7527 1.15325C39 1.36239e-07 24 0 24 0C24 0 9 1.36239e-07 5.24727 1.15325C4.22786 1.47086 3.29932 2.08889 2.55458 2.9455C1.80983 3.8021 1.27501 4.86723 1.00364 6.03429C1.19209e-07 10.3418 0 19.3247 0 19.3247C0 19.3247 1.19209e-07 28.3075 1.00364 32.6151C1.27501 33.7821 1.80983 34.8472 2.55458 35.7038C3.29932 36.5605 4.22786 37.1785 5.24727 37.4961C9 38.6493 24 38.6493 24 38.6493C24 38.6493 39 38.6493 42.7527 37.4961C43.7721 37.1785 44.7007 36.5605 45.4454 35.7038C46.1902 34.8472 46.725 33.7821 46.9964 32.6151C48 28.3075 48 19.3247 48 19.3247C48 19.3247 48 10.3418 46.9964 6.03429Z" fill="#FF0302"/>
</svg>
